<?xml version="1.0" encoding="utf-8"?>
<!-- Generator: Adobe Illustrator 14.0.0, SVG Export Plug-In  -->
<!DOCTYPE svg PUBLIC "-//W3C//DTD SVG 1.1//EN" "http://www.w3.org/Graphics/SVG/1.1/DTD/svg11.dtd" [
	<!ENTITY ns_flows "http://ns.adobe.com/Flows/1.0/">
]>
<svg version="1.1"
	 xmlns="http://www.w3.org/2000/svg" xmlns:xlink="http://www.w3.org/1999/xlink" xmlns:a="http://ns.adobe.com/AdobeSVGViewerExtensions/3.0/"
	 x="0px" y="0px" width="1485px" height="935px" viewBox="-0.007 0 1485 935" enable-background="new -0.007 0 1485 935"
	 xml:space="preserve">
<defs>
</defs>
<g>
	<path fill="#AB2919" d="M1485.148,790.69c0,79.2-64.8,144-144,144H144c-79.2,0-144-64.8-144-144V144C0,64.8,64.8,0,144,0h1197.148
		c79.2,0,144,64.8,144,144V790.69z"/>
</g>
<polygon fill="#FFFFFF" points="383.112,625.458 381.277,625.458 284.423,625.458 282.588,625.458 274.588,625.458 274.588,708.672 
	282.588,708.672 282.588,833.657 284.423,833.657 381.277,833.657 383.112,833.657 383.112,708.672 391.112,708.672 
	391.112,625.458 "/>
<rect x="284.241" y="539.363" fill="#FFFFFF" width="96.719" height="75.938"/>
<polygon fill="#FFFFFF" points="179.114,716.348 179.114,736.136 168.912,736.136 168.912,605.677 168.912,538.464 70.224,538.464 
	60.388,538.464 60.388,618.677 70.224,618.677 70.224,718.136 62.027,718.136 62.027,833.069 70.224,833.069 168.912,833.069 
	175.115,833.069 237.109,833.069 275.803,833.069 275.803,716.348 "/>
<path fill="#FFFFFF" d="M713.776,723.977c0-62.661-50.979-113.641-113.639-113.641h-1.913l-102.33,9.456v-12.529V540.05h-98.688
	h-9.836v78.213h9.836v96.46h-8.197v119.934h8.197h98.688v-1.595l102.33,9.454h1.913c62.66,0,113.639-50.979,113.639-113.639V723.977
	z M502.769,630.278l76.791-6.894l0.279,59.59l-77.331,6.615L502.769,630.278z M578.057,829.598l-75.983-6.893l-0.261-59.313
	l77.331,6.614L578.057,829.598z M630.776,728.877c0,16.387-12.931,29.811-29.125,30.602l-105.756-9.046V702.42l105.756-9.046
	c16.194,0.791,29.125,14.215,29.125,30.603V728.877z"/>
<path fill="#FFFFFF" d="M1410.853,728.567c-1.228-1.838-3.374-2.757-6.431-2.757c-5.21,0-9.345,2.146-12.402,6.431
	c-11.022,11.024-20.208,19.91-27.559,26.642c-3.982,5.21-8.576,7.808-13.779,7.808c-3.676-2.139-3.676-8.268,0-18.373
	c12.551-28.169,23.885-52.972,33.991-74.41c3.057-5.813,6.12-11.863,9.186-18.142c3.057-6.273,4.592-12.015,4.592-17.226
	c0-2.447-0.308-4.894-0.918-7.349c-1.536-7.041-6.43-10.564-14.699-10.564c-5.511,0-15.007,2.296-28.476,6.89
	c-15.926,5.211-27.87,5.512-35.829,0.918c3.676-7.649,5.513-14.697,5.513-21.128s-1.916-11.175-5.74-14.239
	c-3.833-3.058-8.499-4.594-14.01-4.594c-14.699,0-25.881,7.35-33.53,22.048c-4.594,9.186-6.891,17.304-6.891,24.343
	c0,8.577,3.516,15.775,10.564,21.588c-8.886,15.008-19.601,30.473-32.151,46.392c-7.217,9.021-17.248,20.704-30.068,35.037
	c-3.618,3.076-7.357,5.484-11.218,7.221c0-7.959-1.837-16.535-5.512-25.722c-6.129-15.308-9.496-23.727-10.104-25.262
	c-3.674-12.553-5.513-20.972-5.513-25.264c0-4.286,1.68-8.109,5.053-11.482c3.368-3.367,9.646-3.826,18.832-1.378
	c1.528,0.308,3.057,0.458,4.593,0.458c5.814,0,11.325-2.447,16.536-7.349c5.204-4.895,7.808-10.564,7.808-16.994
	c0-17.455-10.262-26.182-30.773-26.182c-11.641,0-25.572,4.593-41.798,13.779c-16.234,9.187-31.233,21.129-45.013,35.828
	c-33.689,37.973-97.778,112.074-115.239,112.074c-2.146,0-3.215-1.377-3.215-4.133c0-7.349,10.104-30.316,30.314-68.898
	c14.391-27.559,21.588-45.013,21.588-52.362c0-2.757-0.618-5.053-1.838-6.89c-7.658-10.406-15.617-15.618-23.885-15.618
	c-5.21,0-11.332,2.146-18.373,6.43c-7.048,4.293-14.087,8.577-21.128,12.862c-25.112,19.6-45.172,36.136-60.17,49.606
	c12.552-23.269,18.831-38.734,18.831-46.391c0-2.757-0.618-5.053-1.838-6.89c-7.657-10.406-15.617-15.618-23.885-15.618
	c-5.211,0-11.332,2.146-18.372,6.43c-7.047,4.293-14.089,8.577-21.129,12.862c-10.105,6.129-26.03,19.14-47.77,39.042
	c-9.187,8.269-19.141,17.612-29.856,28.018c9.796-14.389,15.46-24.343,16.996-29.855c2.755-9.487,2.755-20.209,0-32.151
	c-1.228-5.513-4.673-11.174-10.335-16.995c-5.67-5.813-11.254-9.337-16.766-10.565c-8.267-1.837-23.584,14.699-45.933,49.607
	c-9.531,12.222-18.443,23.524-26.756,33.939c1.591,7.734,2.428,15.741,2.428,23.939v1.824c11.024-12.198,21.137-23.537,30.301-33.98
	c-15.279,29.718-26.62,51.923-34.03,66.622c-4.727,18.359-13.753,35.007-25.931,48.814c-0.751,2.458-1.129,4.707-1.129,6.742
	c0,11.333,5.511,16.996,16.535,16.996c8.267,0,17.912-3.904,28.937-11.713c11.024-7.809,20.211-16.916,27.559-27.33
	c7.351-10.406,20.67-26.792,39.961-49.148c16.838-19.592,28.171-32.303,33.991-38.123c7.039-7.041,12.704-10.563,16.994-10.563
	c1.838,0,2.756,1.076,2.756,3.215c0,1.535-0.458,3.523-1.378,5.971c-14.089,25.722-27.258,49.305-39.501,70.735
	c-0.618,1.228-4.593,7.966-11.942,20.211c-4.902,7.966-7.35,14.547-7.35,19.75c0,11.333,5.513,16.996,16.537,16.996
	c8.267,0,17.912-3.904,28.937-11.713c11.023-7.809,20.21-16.916,27.559-27.33c7.349-10.406,20.669-26.792,39.961-49.148
	c16.836-19.592,28.17-32.303,33.989-38.123c7.042-7.041,12.86-10.563,17.454-10.563c1.838,0,2.756,0.918,2.756,2.755
	c0,1.536-0.617,3.675-1.836,6.431c-8.27,15.926-16.536,31.852-24.805,47.77c-13.169,27.559-18.989,46.391-17.454,56.496
	c2.14,13.78,12.093,20.669,29.856,20.669c8.268,0,16.227-1.607,23.885-4.823c7.65-3.215,21.738-13.701,42.256-31.463
	c18.676-15.918,31.694-28.019,39.044-36.286c1.051-1.156,21.379-22.809,45.882-50.985c18.982-21.739,32.912-35.209,41.798-40.421
	c-2.756,9.188-3.984,22.356-3.675,39.502c0.611,19.292,0.15,32.769-1.378,40.419c-15.925-2.139-26.798-3.215-32.611-3.215
	c-10.104,0-20.06,2.297-29.855,6.89c-11.942,5.82-17.914,16.384-17.914,31.692c0,9.187,2.598,18.373,7.809,27.56
	c8.267,15.007,26.942,22.506,56.036,22.506c12.861,0,25.414-3.517,37.666-10.564c18.063-10.406,31.232-27.1,39.502-50.066
	c14.999-2.447,27.25-9.338,36.743-20.669c4.878-5.689,41.356-52.366,65.63-84.056c13.162,0,19.751,3.833,19.751,11.484
	c0,7.965-5.67,18.989-16.995,33.07c-29.097,36.444-44.713,64.304-46.851,83.596c-0.919,8.885,2.067,17.455,8.956,25.723
	c6.891,8.267,16.148,12.401,27.789,12.401c7.959,0,16.227-2.139,24.804-6.43c30.925-15,61.09-40.262,90.485-75.788
	c5.513-6.732,8.268-11.174,8.268-13.32C1414.526,733.159,1413.301,731.021,1410.853,728.567z M1101.324,790.575
	c-2.146,0-4.291-0.459-6.431-1.378c-5.82-3.057-8.726-7.349-8.726-12.861c0-4.284,2.446-7.959,7.349-11.023
	c2.756-1.837,14.389-1.528,34.908,0.918C1120.458,782.465,1111.43,790.575,1101.324,790.575z"/>
<polygon fill="#FFFFFF" points="529.487,644.569 522.787,644.569 522.787,653.269 514.086,653.269 514.086,659.969 522.787,659.969 
	522.787,668.668 529.487,668.668 529.487,659.969 538.187,659.969 538.187,653.269 529.487,653.269 "/>
<rect x="511.677" y="789.334" fill="#FFFFFF" width="16.05" height="6.7"/>
</svg>
